<svg xmlns="http://www.w3.org/2000/svg" width="241.504" height="90.357" viewBox="0 0 241.504 90.357">
  <g id="Gruppe_439" data-name="Gruppe 439" transform="translate(-730.156 -111.71)">
    <path id="Lumos" d="M3.69,0H9.315V-33.39H3.69Zm32-24.03v12.15c0,4.815-2.655,7.245-6.57,7.245-3.555,0-5.625-2.07-5.625-6.435V-24.03H17.865v13.725c0,7.245,4.185,10.62,10.35,10.62a9.817,9.817,0,0,0,7.74-3.375V0H41.31V-24.03ZM80.37-24.3a11.216,11.216,0,0,0-9,4c-1.665-2.7-4.59-4-8.1-4A9.953,9.953,0,0,0,55.4-20.97v-3.06H50.04V0h5.625V-12.2c0-4.77,2.52-7.2,6.255-7.2,3.42,0,5.4,2.07,5.4,6.345V0h5.625V-12.2c0-4.77,2.565-7.2,6.255-7.2,3.42,0,5.4,2.07,5.4,6.345V0h5.625V-13.77C90.225-21.015,86.175-24.3,80.37-24.3ZM109.8.315c7.47,0,12.825-5.13,12.825-12.33S117.27-24.3,109.8-24.3c-7.38,0-12.78,5.085-12.78,12.285S102.42.315,109.8.315Zm0-4.815c-4.05,0-7.11-2.925-7.11-7.515s3.06-7.515,7.11-7.515c4.095,0,7.155,2.925,7.155,7.515S113.895-4.5,109.8-4.5Zm27,4.815c6.75,0,10.89-2.925,10.89-7.425,0-9.405-14.85-5.085-14.85-9.945,0-1.575,1.62-2.7,5.04-2.7a13.154,13.154,0,0,1,6.885,1.8l2.16-4.275a19.124,19.124,0,0,0-9-2.07c-6.48,0-10.575,2.97-10.575,7.515,0,9.585,14.85,5.265,14.85,9.855,0,1.665-1.485,2.655-5.04,2.655a16.168,16.168,0,0,1-8.37-2.385l-2.16,4.275C128.79-.855,132.795.315,136.8.315Z" transform="translate(823.971 171.712)" fill="#ef5175"/>
    <path id="Hexagon" d="M41.113,90.357a9.124,9.124,0,0,1-4.489-1.17L10.939,74.646l31.212-6.152,7.273,18.53L45.6,89.187A9.124,9.124,0,0,1,41.113,90.357Zm11.735-5.273h0L40.885,54.6l21.23,6.019,2.992,17.521-12.259,6.94Zm15.891-9h0L66.3,61.809l15.575,4.416A8.084,8.084,0,0,1,78.1,70.789l-9.36,5.3ZM6.053,71.88h0l-1.926-1.09A8.315,8.315,0,0,1,1.1,67.88,7.558,7.558,0,0,1,0,63.97V43.012l7.289,2.066.047.107.142-.053,28.7,8.136,4.617,11.764Zm76.172-9.37h0L65.615,57.8,60.873,30.034,82.225,47.246V62.51Zm-20.795-5.9-22.23-6.3L33.361,35.434l22.981-8.61ZM34.49,48.976h0L13.273,42.961,29.712,36.8,34.49,48.976h0Zm47.735-6.563h0L57.1,22.157l-.042-.1L57,22.08,33.357,3.019,36.623,1.17a9.2,9.2,0,0,1,8.979,0l32.5,18.4a8.314,8.314,0,0,1,3.024,2.91,7.559,7.559,0,0,1,1.1,3.91V42.413h0ZM6.442,41.024h0L0,39.2V26.387a7.558,7.558,0,0,1,1.1-3.91,8.315,8.315,0,0,1,3.024-2.91l15.4-8.718,8.647,22.032L6.442,41.024Zm25.381-9.509h0l-8.872-22.6,6.884-3.9,23.074,18.6-21.086,7.9Z" transform="translate(730.156 111.71)" fill="#ef5175"/>
  </g>
</svg>
