<svg xmlns="http://www.w3.org/2000/svg" width="242.814" height="90.357" viewBox="0 0 242.814 90.357">
  <g id="Gruppe_439" data-name="Gruppe 439" transform="translate(-730.156 -111.71)">
    <text id="Lumos" transform="translate(823.971 171.712)" fill="#ef5175" font-size="45" font-family="Montserrat-SemiBold, Montserrat" font-weight="600" letter-spacing="0.03em"><tspan x="0" y="0">lumos</tspan></text>
    <path id="Hexagon" d="M41.113,90.357a9.124,9.124,0,0,1-4.489-1.17L10.939,74.646l31.212-6.152,7.273,18.53L45.6,89.187A9.124,9.124,0,0,1,41.113,90.357Zm11.735-5.273h0L40.885,54.6l21.23,6.019,2.992,17.521-12.259,6.94Zm15.891-9h0L66.3,61.809l15.575,4.416A8.084,8.084,0,0,1,78.1,70.789l-9.36,5.3ZM6.053,71.88h0l-1.926-1.09A8.315,8.315,0,0,1,1.1,67.88,7.558,7.558,0,0,1,0,63.97V43.012l7.289,2.066.047.107.142-.053,28.7,8.136,4.617,11.764Zm76.172-9.37h0L65.615,57.8,60.873,30.034,82.225,47.246V62.51Zm-20.795-5.9-22.23-6.3L33.361,35.434l22.981-8.61ZM34.49,48.976h0L13.273,42.961,29.712,36.8,34.49,48.976h0Zm47.735-6.563h0L57.1,22.157l-.042-.1L57,22.08,33.357,3.019,36.623,1.17a9.2,9.2,0,0,1,8.979,0l32.5,18.4a8.314,8.314,0,0,1,3.024,2.91,7.559,7.559,0,0,1,1.1,3.91V42.413h0ZM6.442,41.024h0L0,39.2V26.387a7.558,7.558,0,0,1,1.1-3.91,8.315,8.315,0,0,1,3.024-2.91l15.4-8.718,8.647,22.032L6.442,41.024Zm25.381-9.509h0l-8.872-22.6,6.884-3.9,23.074,18.6-21.086,7.9Z" transform="translate(730.156 111.71)" fill="#ef5175"/>
  </g>
</svg>
